<svg xmlns="http://www.w3.org/2000/svg" width="560" height="420" viewBox="0 0 560 420" role="img" aria-labelledby="title desc">
  <title id="title">Pizza Ferre</title>
  <desc id="desc">Pizza redonda sobre papel con porciones, tomate, queso y hojas verdes.</desc>
  <defs>
    <filter id="shadow" x="-20%" y="-20%" width="140%" height="150%"><feDropShadow dx="0" dy="22" stdDeviation="22" flood-color="#5a321c" flood-opacity=".22"/></filter>
    <radialGradient id="cheese" cx="42%" cy="34%" r="64%"><stop offset="0" stop-color="#ffe9a9"/><stop offset=".62" stop-color="#f4c766"/><stop offset="1" stop-color="#d88b35"/></radialGradient>
    <radialGradient id="crust" cx="50%" cy="45%" r="60%"><stop offset="0" stop-color="#e9a952"/><stop offset="1" stop-color="#9a4b1f"/></radialGradient>
  </defs>
  <rect x="48" y="40" width="464" height="326" rx="32" fill="#fff5e7" stroke="#ecd7bd"/>
  <path d="M92 82h378M92 338h378" stroke="#ead7c0" stroke-width="2" stroke-dasharray="8 12"/>
  <g filter="url(#shadow)">
    <circle cx="286" cy="214" r="142" fill="url(#crust)"/>
    <circle cx="286" cy="214" r="119" fill="url(#cheese)"/>
    <path d="M286 214 286 95a119 119 0 0 1 102 58Z" fill="#fff0bd" opacity=".42"/>
    <path d="M286 214 389 154a119 119 0 0 1 8 111Z" fill="#d54434" opacity=".18"/>
    <path d="M286 214 397 266a119 119 0 0 1-99 67Z" fill="#fff0bd" opacity=".30"/>
    <path d="M286 214 298 333a119 119 0 0 1-109-51Z" fill="#d54434" opacity=".13"/>
    <path d="M286 214 188 282a119 119 0 0 1-13-119Z" fill="#fff0bd" opacity=".28"/>
    <path d="M286 214 175 162a119 119 0 0 1 111-67Z" fill="#d54434" opacity=".12"/>
    <g fill="none" stroke="#9b4b20" stroke-width="3" opacity=".28">
      <path d="M286 95v238"/><path d="m184 154 205 120"/><path d="m184 274 205-120"/>
    </g>
    <g fill="#b7352b">
      <circle cx="244" cy="148" r="15"/><circle cx="331" cy="145" r="17"/><circle cx="360" cy="222" r="16"/><circle cx="307" cy="280" r="15"/><circle cx="229" cy="266" r="17"/><circle cx="209" cy="202" r="14"/>
    </g>
    <g fill="#2d6d4f">
      <ellipse cx="269" cy="179" rx="18" ry="9" transform="rotate(-34 269 179)"/>
      <ellipse cx="333" cy="247" rx="17" ry="9" transform="rotate(26 333 247)"/>
      <ellipse cx="251" cy="301" rx="16" ry="8" transform="rotate(22 251 301)"/>
      <ellipse cx="382" cy="186" rx="15" ry="8" transform="rotate(-18 382 186)"/>
    </g>
    <g fill="#fff7da" opacity=".82">
      <circle cx="280" cy="240" r="10"/><circle cx="320" cy="199" r="9"/><circle cx="236" cy="223" r="8"/><circle cx="338" cy="304" r="8"/>
    </g>
  </g>
  <g font-family="Arial, sans-serif" font-weight="900">
    <rect x="72" y="300" width="148" height="54" rx="18" fill="#191512"/>
    <text x="96" y="323" fill="#f2c16a" font-size="12" letter-spacing="2">FERRE</text>
    <text x="96" y="344" fill="#fffaf2" font-size="19">sale caliente</text>
    <rect x="372" y="66" width="104" height="104" rx="52" fill="#b7352b"/>
    <text x="424" y="111" fill="#fffaf2" font-size="18" text-anchor="middle">PROMO</text>
    <text x="424" y="137" fill="#fffaf2" font-size="20" text-anchor="middle">ARG</text>
  </g>
</svg>